<?xml version="1.0" encoding="UTF-8" standalone="no"?>
<!-- Created with Inkscape (http://www.inkscape.org/) -->

<svg
   xmlns:dc="http://purl.org/dc/elements/1.1/"
   xmlns:cc="http://creativecommons.org/ns#"
   xmlns:rdf="http://www.w3.org/1999/02/22-rdf-syntax-ns#"
   xmlns:svg="http://www.w3.org/2000/svg"
   xmlns="http://www.w3.org/2000/svg"
   xmlns:xlink="http://www.w3.org/1999/xlink"
   xmlns:sodipodi="http://sodipodi.sourceforge.net/DTD/sodipodi-0.dtd"
   xmlns:inkscape="http://www.inkscape.org/namespaces/inkscape"
   width="200"
   height="200"
   viewBox="0 0 52.916665 52.916668"
   version="1.1"
   id="svg8"
   inkscape:version="0.92.5 (2060ec1f9f, 2020-04-08)"
   sodipodi:docname="logo_v1.svg">
  <defs
     id="defs2">
    <linearGradient
       id="linearGradient1080"
       inkscape:collect="always">
      <stop
         id="stop1076"
         offset="0"
         style="stop-color:#defff9;stop-opacity:1" />
      <stop
         id="stop1078"
         offset="1"
         style="stop-color:#70dfff;stop-opacity:1" />
    </linearGradient>
    <linearGradient
       inkscape:collect="always"
       id="linearGradient1001">
      <stop
         style="stop-color:#275df0;stop-opacity:1"
         offset="0"
         id="stop997" />
      <stop
         id="stop1005"
         offset="0.39194661"
         style="stop-color:#62b9fa;stop-opacity:1" />
      <stop
         style="stop-color:#27c3ff;stop-opacity:1"
         offset="1"
         id="stop999" />
    </linearGradient>
    <linearGradient
       inkscape:collect="always"
       id="linearGradient975">
      <stop
         style="stop-color:#caf8ff;stop-opacity:1"
         offset="0"
         id="stop971" />
      <stop
         style="stop-color:#77c9ff;stop-opacity:1"
         offset="1"
         id="stop973" />
    </linearGradient>
    <linearGradient
       inkscape:collect="always"
       id="linearGradient965">
      <stop
         style="stop-color:#7fffa2;stop-opacity:1"
         offset="0"
         id="stop961" />
      <stop
         id="stop969"
         offset="0.5022257"
         style="stop-color:#fffdaa;stop-opacity:1" />
      <stop
         style="stop-color:#7fffa2;stop-opacity:1"
         offset="1"
         id="stop963" />
    </linearGradient>
    <linearGradient
       inkscape:collect="always"
       xlink:href="#linearGradient965"
       id="linearGradient967"
       x1="21.275106"
       y1="291.2359"
       x2="21.130686"
       y2="249.86362"
       gradientUnits="userSpaceOnUse" />
    <radialGradient
       inkscape:collect="always"
       xlink:href="#linearGradient975"
       id="radialGradient979"
       cx="30.165199"
       cy="270.66025"
       fx="30.165199"
       fy="270.66025"
       r="20.780754"
       gradientTransform="matrix(0.64898315,-0.00515064,0.00650023,0.81903316,12.243491,49.112196)"
       gradientUnits="userSpaceOnUse" />
    <linearGradient
       inkscape:collect="always"
       xlink:href="#linearGradient1001"
       id="linearGradient1003"
       x1="18.42634"
       y1="295.29913"
       x2="41.671875"
       y2="248.24106"
       gradientUnits="userSpaceOnUse" />
    <radialGradient
       inkscape:collect="always"
       xlink:href="#linearGradient1080"
       id="radialGradient1067"
       gradientUnits="userSpaceOnUse"
       gradientTransform="matrix(1.8685178,0,-2.5948586e-8,3.0956559,67.955621,-737.51235)"
       cx="30.165199"
       cy="270.66025"
       fx="30.165199"
       fy="270.66025"
       r="20.780754" />
  </defs>
  <sodipodi:namedview
     id="base"
     pagecolor="#000000"
     bordercolor="#666666"
     borderopacity="1.0"
     inkscape:pageopacity="0"
     inkscape:pageshadow="2"
     inkscape:zoom="0.98994949"
     inkscape:cx="345.98499"
     inkscape:cy="144.42082"
     inkscape:document-units="mm"
     inkscape:current-layer="layer1"
     showgrid="false"
     units="px"
     showborder="true"
     borderlayer="false"
     inkscape:window-width="1920"
     inkscape:window-height="1004"
     inkscape:window-x="1920"
     inkscape:window-y="0"
     inkscape:window-maximized="1" />
  <metadata
     id="metadata5">
    <rdf:RDF>
      <cc:Work
         rdf:about="">
        <dc:format>image/svg+xml</dc:format>
        <dc:type
           rdf:resource="http://purl.org/dc/dcmitype/StillImage" />
        <dc:title></dc:title>
      </cc:Work>
    </rdf:RDF>
  </metadata>
  <g
     inkscape:label="Layer 1"
     inkscape:groupmode="layer"
     id="layer1"
     transform="translate(0,-244.08332)">
    <ellipse
       style="fill:url(#linearGradient1003);fill-opacity:1;stroke:none;stroke-width:0.36274377;stroke-miterlimit:4;stroke-dasharray:2.90194996, 1.45097498000000003;stroke-dashoffset:0;stroke-opacity:1"
       id="path815"
       cx="26.458334"
       cy="270.54166"
       r="26.36384" />
    <g
       id="g959"
       transform="translate(-0.68659697)">
      <path
         style="fill:url(#radialGradient1067);fill-opacity:1;stroke:none;stroke-width:1.07220244px;stroke-linecap:butt;stroke-linejoin:miter;stroke-opacity:1"
         d="m 131.57617,35.623047 c -9.91983,0.255647 -10.46259,13.419572 -15.42969,31.5 -3.67567,13.379716 -9.99822,28.800292 -23.806636,28.878906 C 78.51378,95.83864 70.442997,77.692448 66.546875,66.9375 64.057844,60.066772 62.511853,54.39471 61.148438,49.742188 c -0.785825,3.289096 -1.618961,6.707787 -2.626954,10.376953 -4.809637,17.5073 -13.904338,34.622681 -32.830078,39.486328 l -3.947265,-0.01563 c 0.758149,0.118148 1.500572,0.259858 2.230468,0.414071 -0.729872,0.15439 0.756351,-0.120218 -0.0018,-0.002 l 1.730289,0.40228 c 18.918597,4.86731 28.009617,21.97837 32.818359,39.48241 1.002376,3.64872 1.829337,7.04999 2.611328,10.32227 1.366496,-4.66016 2.916974,-10.3492 5.414063,-17.24219 3.896432,-10.75577 13.158668,-28.52965 25.796875,-28.78515 12.31606,0.17231 20.12737,15.2211 23.80273,28.59961 4.9671,18.08039 5.50986,31.24255 15.42969,31.49805 10.35706,0.26687 9.49761,-10.55976 17.01563,-31.31251 3.15571,-8.7111 5.40144,-19.64543 16.4414,-27.08398 v 0 c 0,0 5.03561,-6.014194 25.61747,-5.76173 -20.58186,0.25255 -25.61747,-6.095694 -25.61747,-6.095694 v 0 C 153.9931,86.586286 151.74753,75.650606 148.5918,66.939453 141.07378,46.186672 141.93323,35.361316 131.57617,35.628906 v -0.002 z"
         transform="matrix(0.26458333,0,0,0.26458333,0.68659697,244.08332)"
         id="path838-6-5-3"
         inkscape:connector-curvature="0"
         sodipodi:nodetypes="cccccccccccccsccccccccccccc" />
      <path
         inkscape:connector-curvature="0"
         id="path817"
         d="m 21.130685,249.86339 c 3.329367,-0.0859 3.052805,3.39487 5.469531,10.06603 1.342506,3.70588 2.169138,8.66514 9.719667,10.61264 -7.550529,1.94749 -8.377161,6.90612 -9.719667,10.61199 -2.416726,6.67116 -2.140164,10.15183 -5.469531,10.06603 -3.188816,-0.0822 -3.363635,-4.31387 -4.960348,-10.12597 -1.272313,-4.63128 -3.677673,-9.1587 -8.6832199,-10.44651 l -0.4577073,-0.10542 c 0.200585,-0.0313 -0.1931131,0.0408 0,0 -0.1931163,-0.0408 -0.3892747,-0.0782 -0.5898683,-0.10943 l 1.0447931,0.004 c 5.0074414,-1.28685 7.4134544,-5.81503 8.6860024,-10.44717 1.596713,-5.81211 1.771532,-10.04377 4.960348,-10.12597 z"
         style="fill:url(#linearGradient967);fill-opacity:1;stroke:none;stroke-width:0.34466875px;stroke-linecap:butt;stroke-linejoin:miter;stroke-opacity:1"
         sodipodi:nodetypes="cscscscccccscc" />
      <path
         inkscape:connector-curvature="0"
         id="path838-6-5"
         d="m 16.819669,257.10965 c 0.364358,1.24337 0.777833,2.75908 1.442983,4.59516 1.04129,2.8744 3.198124,7.72422 6.893325,7.76786 2.040719,-0.0116 3.468064,-1.27933 4.503959,-3.01297 1.348176,1.71234 3.398878,3.20236 6.811395,4.08255 -3.476545,0.8967 -5.539312,2.42588 -6.88608,4.1786 -1.107065,-1.7538 -2.57733,-3.03667 -4.42816,-3.06257 -3.377733,0.0683 -5.853066,4.8186 -6.894439,7.69323 -0.667205,1.84175 -1.081185,3.36186 -1.446329,4.60716 -0.10011,-0.41884 -0.201001,-0.83419 -0.312116,-1.27733 -0.0078,-0.0311 -0.01556,-0.0616 -0.02341,-0.0929 -0.114025,-0.45256 -0.232947,-0.91265 -0.363394,-1.38747 -0.401666,-1.46209 -0.914628,-2.91358 -1.585109,-4.25847 -0.134078,-0.26895 -0.274357,-0.53329 -0.421357,-0.79292 -0.294065,-0.51938 -0.614653,-1.01857 -0.964776,-1.49135 -0.08751,-0.11817 -0.176851,-0.23444 -0.268085,-0.34921 -0.09132,-0.11488 -0.184091,-0.22802 -0.279234,-0.3393 -0.190019,-0.22227 -0.388316,-0.43686 -0.594137,-0.64363 -9.2e-5,-9e-5 9.1e-5,-4.3e-4 0,-5.2e-4 -0.102961,-0.10343 -0.207854,-0.20454 -0.314905,-0.3038 -0.107048,-0.0993 -0.215935,-0.19638 -0.327164,-0.29128 -0.222462,-0.1898 -0.45362,-0.37064 -0.693347,-0.54183 -0.239722,-0.17119 -0.50473,-0.38297 -0.76244,-0.53401 -1.2390371,-1.04119 -3.8350852,-1.35226 -6.4505025,-1.42772 2.6269668,-0.1082 6.3565553,-0.53976 9.4206135,-3.45123 8.9e-5,-1.2e-4 -8.9e-5,-4.1e-4 0,-5.2e-4 0.182431,-0.22946 0.357875,-0.46571 0.525584,-0.70836 8.5e-5,-1.2e-4 -8.6e-5,-4e-4 0,-5.2e-4 0.251591,-0.36404 0.487345,-0.7418 0.707837,-1.13117 7.6e-5,-1.4e-4 -8.1e-5,-3.9e-4 0,-5.2e-4 0.146959,-0.25954 0.287311,-0.52406 0.421357,-0.79292 7.2e-5,-1.4e-4 -7.1e-5,-3.8e-4 0,-5.2e-4 0.134038,-0.26886 0.262167,-0.54186 0.384014,-0.8185 6.6e-5,-1.5e-4 -6.5e-5,-3.7e-4 0,-5.2e-4 0.487633,-1.10714 0.880292,-2.27021 1.201651,-3.43997 0.130147,-0.47374 0.249041,-0.93224 0.362835,-1.38382 0.01095,-0.0436 0.0215,-0.0861 0.03233,-0.12946 0.109368,-0.43691 0.208375,-0.84641 0.307103,-1.25958 z"
         style="fill:#ffffff;fill-opacity:1;stroke:none;stroke-width:0.28656062px;stroke-linecap:butt;stroke-linejoin:miter;stroke-opacity:1"
         sodipodi:nodetypes="ccccccccccccccccccccccccccccccccccscccc" />
    </g>
  </g>
</svg>
