<?xml version="1.0" encoding="UTF-8" standalone="no"?>
<!-- Created with Inkscape (http://www.inkscape.org/) -->

<svg
   xmlns:dc="http://purl.org/dc/elements/1.1/"
   xmlns:cc="http://creativecommons.org/ns#"
   xmlns:rdf="http://www.w3.org/1999/02/22-rdf-syntax-ns#"
   xmlns:svg="http://www.w3.org/2000/svg"
   xmlns="http://www.w3.org/2000/svg"
   xmlns:xlink="http://www.w3.org/1999/xlink"
   xmlns:sodipodi="http://sodipodi.sourceforge.net/DTD/sodipodi-0.dtd"
   xmlns:inkscape="http://www.inkscape.org/namespaces/inkscape"
   width="200"
   height="200"
   viewBox="0 0 52.916665 52.916668"
   version="1.1"
   id="svg8"
   inkscape:version="0.92.5 (2060ec1f9f, 2020-04-08)"
   sodipodi:docname="logo_v2.svg"
   enable-background="new">
  <defs
     id="defs2">
    <inkscape:path-effect
       live_update="true"
       vertical_mirror="false"
       horizontal_mirror="false"
       is_visible="true"
       id="path-effect1185"
       gridpoint32x33x34x35="21.982918,210.82376"
       gridpoint29x31="45.075272,212.29375"
       gridpoint28x30="-11.132044,187.83859"
       gridpoint25x27="58.679559,202.00387"
       gridpoint24x26="-24.602695,202.00387"
       gridpoint22x23="10.757598,229.47295"
       gridpoint20x21="23.98744,185.62646"
       gridpoint19="32.647239,224.6621"
       gridpoint18="2.8996067,217.57946"
       gridpoint17="45.075272,179.07836"
       gridpoint16="1.5632591,171.59481"
       gridpoint15="58.679559,221.32123"
       gridpoint14="-24.602695,221.32123"
       gridpoint13="58.679559,182.6865"
       gridpoint12="-24.602695,182.6865"
       gridpoint10x11="17.038432,240.6386"
       gridpoint8x9="17.038432,163.36913"
       gridpoint7="37.858995,240.6386"
       gridpoint6="-3.7821315,240.6386"
       gridpoint5="37.858995,163.36913"
       gridpoint4="-3.7821315,163.36913"
       gridpoint3="58.679559,240.6386"
       gridpoint2="-24.602695,240.6386"
       gridpoint1="58.679559,163.36913"
       gridpoint0="-24.602695,163.36913"
       effect="lattice2" />
    <inkscape:path-effect
       effect="lattice2"
       gridpoint0="-24.602695,163.36913"
       gridpoint1="58.679559,163.36913"
       gridpoint2="-24.602695,240.6386"
       gridpoint3="58.679559,240.6386"
       gridpoint4="-3.7821315,163.36913"
       gridpoint5="37.858995,163.36913"
       gridpoint6="-3.7821315,240.6386"
       gridpoint7="37.858995,240.6386"
       gridpoint8x9="17.038432,163.36913"
       gridpoint10x11="17.038432,240.6386"
       gridpoint12="-24.602695,182.6865"
       gridpoint13="58.679559,182.6865"
       gridpoint14="-24.602695,221.32123"
       gridpoint15="58.679559,221.32123"
       gridpoint16="1.5632591,171.59481"
       gridpoint17="45.075272,179.07836"
       gridpoint18="2.8996067,217.57946"
       gridpoint19="32.647239,224.6621"
       gridpoint20x21="23.98744,185.62646"
       gridpoint22x23="10.757598,229.47295"
       gridpoint24x26="-24.602695,202.00387"
       gridpoint25x27="58.679559,202.00387"
       gridpoint28x30="-11.132044,187.83859"
       gridpoint29x31="45.075272,212.29375"
       gridpoint32x33x34x35="21.982918,210.82376"
       id="path-effect1181"
       is_visible="true"
       horizontal_mirror="false"
       vertical_mirror="false"
       live_update="true" />
    <linearGradient
       id="linearGradient1080"
       inkscape:collect="always">
      <stop
         id="stop1076"
         offset="0"
         style="stop-color:#defff9;stop-opacity:1" />
      <stop
         id="stop1078"
         offset="1"
         style="stop-color:#70dfff;stop-opacity:1" />
    </linearGradient>
    <linearGradient
       inkscape:collect="always"
       id="linearGradient1001">
      <stop
         style="stop-color:#275df0;stop-opacity:1"
         offset="0"
         id="stop997" />
      <stop
         id="stop1005"
         offset="0.39194661"
         style="stop-color:#62b9fa;stop-opacity:1" />
      <stop
         style="stop-color:#27c3ff;stop-opacity:1"
         offset="1"
         id="stop999" />
    </linearGradient>
    <linearGradient
       inkscape:collect="always"
       id="linearGradient975">
      <stop
         style="stop-color:#caf8ff;stop-opacity:1"
         offset="0"
         id="stop971" />
      <stop
         style="stop-color:#77c9ff;stop-opacity:1"
         offset="1"
         id="stop973" />
    </linearGradient>
    <linearGradient
       inkscape:collect="always"
       id="linearGradient965">
      <stop
         style="stop-color:#7fffa2;stop-opacity:1"
         offset="0"
         id="stop961" />
      <stop
         id="stop969"
         offset="0.5022257"
         style="stop-color:#fffdaa;stop-opacity:1" />
      <stop
         style="stop-color:#7fffa2;stop-opacity:1"
         offset="1"
         id="stop963" />
    </linearGradient>
    <linearGradient
       inkscape:collect="always"
       xlink:href="#linearGradient965"
       id="linearGradient967"
       x1="21.275106"
       y1="291.2359"
       x2="21.130686"
       y2="249.86362"
       gradientUnits="userSpaceOnUse" />
    <radialGradient
       inkscape:collect="always"
       xlink:href="#linearGradient975"
       id="radialGradient979"
       cx="30.165199"
       cy="270.66025"
       fx="30.165199"
       fy="270.66025"
       r="20.780754"
       gradientTransform="matrix(0.64898315,-0.00515064,0.00650023,0.81903316,12.243491,49.112196)"
       gradientUnits="userSpaceOnUse" />
    <linearGradient
       inkscape:collect="always"
       xlink:href="#linearGradient1001"
       id="linearGradient1003"
       x1="18.42634"
       y1="295.29913"
       x2="41.671875"
       y2="248.24106"
       gradientUnits="userSpaceOnUse" />
    <radialGradient
       inkscape:collect="always"
       xlink:href="#linearGradient1080"
       id="radialGradient1067"
       gradientUnits="userSpaceOnUse"
       gradientTransform="matrix(1.8685178,0,-2.5948586e-8,3.0956559,67.955621,-737.51235)"
       cx="30.165199"
       cy="270.66025"
       fx="30.165199"
       fy="270.66025"
       r="20.780754" />
    <clipPath
       clipPathUnits="userSpaceOnUse"
       id="clipPath1091">
      <circle
         style="fill:#70dfff;fill-opacity:1;stroke:#ffffff;stroke-width:1.05039585;stroke-linecap:round;stroke-miterlimit:4;stroke-dasharray:none;stroke-dashoffset:0;stroke-opacity:1"
         id="circle1093"
         cx="7.2619133"
         cy="286.56473"
         r="26.058779" />
    </clipPath>
    <linearGradient
       inkscape:collect="always"
       xlink:href="#linearGradient1001"
       id="linearGradient1103"
       x1="0.42522621"
       y1="270.54166"
       x2="52.491444"
       y2="270.54166"
       gradientUnits="userSpaceOnUse" />
    <clipPath
       clipPathUnits="userSpaceOnUse"
       id="clipPath1091-3">
      <circle
         style="fill:#70dfff;fill-opacity:1;stroke:#ffffff;stroke-width:1.05039585;stroke-linecap:round;stroke-miterlimit:4;stroke-dasharray:none;stroke-dashoffset:0;stroke-opacity:1"
         id="circle1093-6"
         cx="7.2619133"
         cy="286.56473"
         r="26.058779" />
    </clipPath>
    <filter
       inkscape:collect="always"
       style="color-interpolation-filters:sRGB"
       id="filter1167">
      <feBlend
         inkscape:collect="always"
         mode="overlay"
         in2="BackgroundImage"
         id="feBlend1169" />
    </filter>
    <linearGradient
       inkscape:collect="always"
       xlink:href="#linearGradient965"
       id="linearGradient1177"
       x1="-18.796865"
       y1="286.56473"
       x2="33.32069"
       y2="286.56473"
       gradientUnits="userSpaceOnUse" />
  </defs>
  <sodipodi:namedview
     id="base"
     pagecolor="#000000"
     bordercolor="#666666"
     borderopacity="1.0"
     inkscape:pageopacity="0"
     inkscape:pageshadow="2"
     inkscape:zoom="1.979899"
     inkscape:cx="144.84538"
     inkscape:cy="63.987136"
     inkscape:document-units="mm"
     inkscape:current-layer="layer1"
     showgrid="false"
     units="px"
     showborder="true"
     borderlayer="false"
     inkscape:window-width="1920"
     inkscape:window-height="1004"
     inkscape:window-x="1920"
     inkscape:window-y="0"
     inkscape:window-maximized="1" />
  <metadata
     id="metadata5">
    <rdf:RDF>
      <cc:Work
         rdf:about="">
        <dc:format>image/svg+xml</dc:format>
        <dc:type
           rdf:resource="http://purl.org/dc/dcmitype/StillImage" />
        <dc:title></dc:title>
      </cc:Work>
    </rdf:RDF>
  </metadata>
  <g
     inkscape:label="Layer 1"
     inkscape:groupmode="layer"
     id="layer1"
     transform="translate(0,-244.08332)">
    <circle
       style="fill:url(#linearGradient1103);fill-opacity:1.0;stroke:none;stroke-width:0.35126856;stroke-miterlimit:4;stroke-dasharray:2.81014837, 1.40507418999999989;stroke-dashoffset:0;stroke-opacity:1"
       id="path1095"
       cx="26.458334"
       cy="270.54166"
       r="26.033108" />
    <ellipse
       style="fill:url(#linearGradient1003);fill-opacity:1;stroke:none;stroke-width:0.36274377;stroke-miterlimit:4;stroke-dasharray:2.90194996, 1.45097498000000003;stroke-dashoffset:0;stroke-opacity:1"
       id="path815"
       cx="26.458334"
       cy="270.54166"
       r="26.36384" />
    <g
       id="g959"
       transform="translate(-0.43101404,0.67345714)">
      <path
         style="fill:url(#radialGradient1067);fill-opacity:1;stroke:none;stroke-width:1.07220244px;stroke-linecap:butt;stroke-linejoin:miter;stroke-opacity:1"
         d="m 131.57617,35.623047 c -9.91983,0.255647 -10.46259,13.419572 -15.42969,31.5 -3.67567,13.379716 -9.99822,28.800292 -23.806636,28.878906 C 78.51378,95.83864 70.442997,77.692448 66.546875,66.9375 64.057844,60.066772 62.511853,54.39471 61.148438,49.742188 c -0.785825,3.289096 -1.618961,6.707787 -2.626954,10.376953 -4.809637,17.5073 -13.904338,34.622681 -32.830078,39.486328 l -3.947265,-0.01563 c 0.758149,0.118148 1.500572,0.259858 2.230468,0.414071 -0.729872,0.15439 0.756351,-0.120218 -0.0018,-0.002 l 1.730289,0.40228 c 18.918597,4.86731 28.009617,21.97837 32.818359,39.48241 1.002376,3.64872 1.829337,7.04999 2.611328,10.32227 1.366496,-4.66016 2.916974,-10.3492 5.414063,-17.24219 3.896432,-10.75577 13.158668,-28.52965 25.796875,-28.78515 12.316057,0.17231 20.127367,15.2211 23.802727,28.59961 4.9671,18.08039 5.50986,31.24255 15.42969,31.49805 10.35706,0.26687 9.49761,-10.55976 17.01563,-31.31251 3.15571,-8.7111 5.40144,-19.64543 16.4414,-27.08398 v 0 c 0,0 5.03561,-6.014194 25.61747,-5.76173 -20.58186,0.25255 -25.61747,-6.095694 -25.61747,-6.095694 v 0 C 153.9931,86.586286 151.74753,75.650606 148.5918,66.939453 141.07378,46.186672 141.93323,35.361316 131.57617,35.628906 v -0.002 z"
         transform="matrix(0.26458333,0,0,0.26458333,0.68659697,244.08332)"
         id="path838-6-5-3"
         inkscape:connector-curvature="0"
         sodipodi:nodetypes="cccccccccccccsccccccccccccc" />
      <path
         inkscape:connector-curvature="0"
         id="path817"
         d="m 21.130685,249.86339 c 3.329367,-0.0859 3.052805,3.39487 5.469531,10.06603 1.342506,3.70588 2.169138,8.66514 9.719667,10.61264 -7.550529,1.94749 -8.377161,6.90612 -9.719667,10.61199 -2.416726,6.67116 -2.140164,10.15183 -5.469531,10.06603 -3.188816,-0.0822 -3.363635,-4.31387 -4.960348,-10.12597 -1.272313,-4.63128 -3.677673,-9.1587 -8.6832199,-10.44651 l -0.4577073,-0.10542 c 0.200585,-0.0313 -0.1931131,0.0408 0,0 -0.1931163,-0.0408 -0.3892747,-0.0782 -0.5898683,-0.10943 l 1.0447931,0.004 c 5.0074414,-1.28685 7.4134544,-5.81503 8.6860024,-10.44717 1.596713,-5.81211 1.771532,-10.04377 4.960348,-10.12597 z"
         style="fill:url(#linearGradient967);fill-opacity:1;stroke:none;stroke-width:0.34466875px;stroke-linecap:butt;stroke-linejoin:miter;stroke-opacity:1"
         sodipodi:nodetypes="cscscscccccscc" />
      <path
         inkscape:connector-curvature="0"
         id="path838-6-5"
         d="m 16.819669,257.10965 c 0.364358,1.24337 0.777833,2.75908 1.442983,4.59516 1.04129,2.8744 3.198124,7.72422 6.893325,7.76786 2.040719,-0.0116 3.468064,-1.27933 4.503959,-3.01297 1.348176,1.71234 3.398878,3.20236 6.811395,4.08255 -3.476545,0.8967 -5.539312,2.42588 -6.88608,4.1786 -1.107065,-1.7538 -2.57733,-3.03667 -4.42816,-3.06257 -3.377733,0.0683 -5.853066,4.8186 -6.894439,7.69323 -0.667205,1.84175 -1.081185,3.36186 -1.446329,4.60716 -0.10011,-0.41884 -0.201001,-0.83419 -0.312116,-1.27733 -0.0078,-0.0311 -0.01556,-0.0616 -0.02341,-0.0929 -0.114025,-0.45256 -0.232947,-0.91265 -0.363394,-1.38747 -0.401666,-1.46209 -0.914628,-2.91358 -1.585109,-4.25847 -0.134078,-0.26895 -0.274357,-0.53329 -0.421357,-0.79292 -0.294065,-0.51938 -0.614653,-1.01857 -0.964776,-1.49135 -0.08751,-0.11817 -0.176851,-0.23444 -0.268085,-0.34921 -0.09132,-0.11488 -0.184091,-0.22802 -0.279234,-0.3393 -0.190019,-0.22227 -0.388316,-0.43686 -0.594137,-0.64363 -9.2e-5,-9e-5 9.1e-5,-4.3e-4 0,-5.2e-4 -0.102961,-0.10343 -0.207854,-0.20454 -0.314905,-0.3038 -0.107048,-0.0993 -0.215935,-0.19638 -0.327164,-0.29128 -0.222462,-0.1898 -0.45362,-0.37064 -0.693347,-0.54183 -0.239722,-0.17119 -0.50473,-0.38297 -0.76244,-0.53401 -1.2390371,-1.04119 -3.8350852,-1.35226 -6.4505025,-1.42772 2.6269668,-0.1082 6.3565553,-0.53976 9.4206135,-3.45123 8.9e-5,-1.2e-4 -8.9e-5,-4.1e-4 0,-5.2e-4 0.182431,-0.22946 0.357875,-0.46571 0.525584,-0.70836 8.5e-5,-1.2e-4 -8.6e-5,-4e-4 0,-5.2e-4 0.251591,-0.36404 0.487345,-0.7418 0.707837,-1.13117 7.6e-5,-1.4e-4 -8.1e-5,-3.9e-4 0,-5.2e-4 0.146959,-0.25954 0.287311,-0.52406 0.421357,-0.79292 7.2e-5,-1.4e-4 -7.1e-5,-3.8e-4 0,-5.2e-4 0.134038,-0.26886 0.262167,-0.54186 0.384014,-0.8185 6.6e-5,-1.5e-4 -6.5e-5,-3.7e-4 0,-5.2e-4 0.487633,-1.10714 0.880292,-2.27021 1.201651,-3.43997 0.130147,-0.47374 0.249041,-0.93224 0.362835,-1.38382 0.01095,-0.0436 0.0215,-0.0861 0.03233,-0.12946 0.109368,-0.43691 0.208375,-0.84641 0.307103,-1.25958 z"
         style="fill:#ffffff;fill-opacity:1;stroke:none;stroke-width:0.28656062px;stroke-linecap:butt;stroke-linejoin:miter;stroke-opacity:1"
         sodipodi:nodetypes="ccccccccccccccccccccccccccccccccccscccc" />
    </g>
    <path
       id="path1178"
       style="fill:none;stroke:#ffffff;stroke-width:1.05039585;stroke-linecap:round;stroke-linejoin:miter;stroke-miterlimit:4;stroke-dasharray:none;stroke-opacity:1"
       d="m -24.602695,180.81708 c 7.515337,-4.79643 17.9465115,-4.34697 30.1976669,-2.02529 13.9766551,2.64868 20.4870251,5.00013 30.4191171,5.71057 7.903726,0.56535 12.870517,-0.78837 16.655582,-1.91715 3.693217,-1.10139 6.009888,-1.76813 6.009888,-1.76813 m -83.282254,-2.49257 c 7.611383,-4.09803 17.8310474,-3.85457 29.8011439,-2.02083 11.3548461,1.73948 22.1256361,4.16335 29.9900531,4.67374 7.946989,0.51575 13.143524,-0.50209 17.137963,-1.34625 3.894154,-0.82297 6.353094,-1.30666 6.353094,-1.30666 m -83.282254,-2.49256 c 7.687087,-3.36889 17.6423155,-3.30195 29.2850213,-1.9372 11.0528467,1.2956 21.6023087,3.19538 29.5274027,3.64436 8.015688,0.45411 13.488876,-0.25144 17.726465,-0.82981 4.127497,-0.56335 6.743365,-0.87735 6.743365,-0.87735 m -83.282254,-2.49256 c 7.731627,-2.62783 17.3701569,-2.6981 28.6438493,-1.76501 10.7134057,0.88673 21.0351507,2.28222 29.0466617,2.65866 8.113157,0.38123 13.906853,-0.049 18.418222,-0.39274 4.389837,-0.33446 7.173521,-0.50091 7.173521,-0.50091 m -83.282254,-2.49257 c 7.732886,-1.89584 17.0040081,-2.0534 27.8725598,-1.49468 10.3422902,0.53166 20.4389022,1.46254 28.5654342,1.75638 8.243341,0.29807 14.396672,0.0918 19.209103,-0.0618 4.652981,-0.14851 7.635157,-0.19988 7.635157,-0.19988 m -83.282254,-2.49256 c 7.677332,-1.19609 16.5330238,-1.37956 26.9664776,-1.11651 9.4811954,0.23905 18.6222394,0.74173 28.1034344,0.98078 8.412259,0.20587 14.955019,0.15676 20.0937,0.13431 4.968437,-0.0217 8.118642,0.001 8.118642,0.001 m -83.282254,-2.49257 c 7.550311,-0.55404 15.9457748,-0.68954 25.9212978,-0.62061 9.5328092,0.0659 19.2280932,0.27476 27.6824792,0.37858 8.641625,0.10612 15.562435,0.13081 21.06535,0.16512 5.298846,0.033 8.613127,0.0769 8.613127,0.0769 m -83.282254,-2.49256 c 27.7826248,0.01 83.282254,0 83.282254,0 m -83.282254,37.38846 c 6.92972,-7.70698 17.2742801,-5.51242 29.8445837,-0.28543 5.9507773,2.47446 11.9057553,5.34336 17.2815423,7.4373 5.501125,2.14276 10.058473,3.38384 14.196546,3.6409 8.138114,0.50556 13.042566,-3.11879 16.542513,-6.07266 3.439444,-2.90281 5.417069,-4.72011 5.417069,-4.72011 m -83.282254,-2.49256 c 6.937398,-7.68177 17.4447274,-5.65313 30.1627002,-0.59531 6.0204958,2.39429 12.0328788,5.19179 17.4350638,7.24677 5.529793,2.10352 10.078854,3.33781 14.187724,3.62003 8.075626,0.55468 12.823666,-2.90313 16.224867,-5.7385 3.339159,-2.78365 5.271899,-4.53299 5.271899,-4.53299 m -83.282254,-2.49257 c 6.970191,-7.55028 17.6031064,-5.71352 30.4186124,-0.89542 13.9522656,5.24547 22.2228426,9.79866 31.6857746,10.49885 8.018066,0.59328 12.652363,-2.65169 15.990632,-5.32682 3.274317,-2.62388 5.187235,-4.27661 5.187235,-4.27661 m -83.282254,-2.49256 c 7.026264,-7.31468 17.7438663,-5.69102 30.6038012,-1.17765 14.0622888,4.93535 22.1905218,9.24484 31.6656908,9.9826 7.967563,0.62038 12.533773,-2.37052 15.847086,-4.84757 3.246896,-2.42739 5.165676,-3.95738 5.165676,-3.95738 m -83.282254,-2.49256 c 7.102696,-6.97924 17.8608466,-5.5845 30.7101345,-1.43371 14.1238395,4.56251 22.0586675,8.56807 31.5632835,9.32979 7.926363,0.63524 12.472441,-2.0665 15.800234,-4.31258 3.258203,-2.19911 5.208602,-3.5835 5.208602,-3.5835 m -83.282254,-2.49257 c 7.195477,-6.55025 17.9472764,-5.39432 30.7298624,-1.65519 14.1388686,4.13587 21.8251766,7.78443 31.3814066,8.5557 7.896831,0.63734 12.472339,-1.74735 15.854819,-3.73556 3.308867,-1.94494 5.316166,-3.16495 5.316166,-3.16495 m -83.282254,-2.49256 c 7.2995,-6.03613 17.9957785,-5.12227 30.6556184,-1.83347 14.1121096,3.66607 21.4882006,6.91312 31.1250236,7.67904 7.881454,0.62641 12.536867,-1.42157 16.014313,-3.13204 3.398847,-1.67181 5.487299,-2.71353 5.487299,-2.71353 m -83.282254,-2.49257 c 7.40856,-5.44734 17.9983778,-4.77158 30.4804191,-1.95981 14.0525489,3.16556 21.0446579,5.97654 30.8012009,6.72208 7.88284,0.60236 12.668846,-1.09852 16.280922,-2.51947 3.527428,-1.38765 5.719712,-2.2428 5.719712,-2.2428 m -83.282254,37.38847 c 7.633382,-4.50927 15.9403232,-2.28055 26.20887,1.6248 10.896059,4.144 18.559802,7.37607 28.237415,7.29803 8.594913,-0.0693 15.708367,-3.10747 20.794942,-5.37789 5.057799,-2.25758 8.041027,-3.54494 8.041027,-3.54494 m -83.282254,-2.49257 c 7.504737,-5.16234 16.0809011,-2.79809 26.6719909,1.50956 11.2622521,4.58062 19.0769021,8.21635 28.7339961,8.21621 8.557314,-1.1e-4 15.359725,-3.29504 20.224093,-5.79785 4.826081,-2.48312 7.652174,-3.92792 7.652174,-3.92792 m -83.282254,-2.49256 c 7.376681,-5.76692 16.2318118,-3.30771 27.1548491,1.34496 11.6393179,4.95777 19.6031839,8.95289 29.2355999,9.0378 8.511084,0.075 14.99793,-3.42863 19.632804,-6.12797 4.589715,-2.67304 7.259001,-4.25479 7.259001,-4.25479 m -83.282254,-2.49257 c 7.256092,-6.30843 16.3923911,-3.79538 27.6458628,1.13784 12.0162972,5.26761 20.1191792,9.56902 29.7240132,9.74304 8.457705,0.15324 14.63237,-3.5076 19.038491,-6.36324 4.35607,-2.82319 6.873887,-4.51764 6.873887,-4.51764 m -83.282254,-2.49256 c 7.148764,-6.77438 16.5613597,-4.24848 28.1338261,0.89518 5.8577332,2.6036 10.6386159,5.03648 16.1443879,7.12273 5.251103,1.98975 9.773718,3.07524 14.038735,3.19298 8.398677,0.23185 14.271973,-3.53215 18.457308,-6.50053 4.131843,-2.93045 6.507997,-4.71036 6.507997,-4.71036 m -83.282254,-2.49256 c 7.059399,-7.15441 16.7368318,-4.6558 28.6079226,0.62413 5.6209609,2.50004 11.2802144,5.33463 16.4937464,7.36249 5.331038,2.07355 9.871877,3.22391 14.10518,3.38056 8.335546,0.30846 13.925166,-3.50326 17.904138,-6.53857 3.923056,-2.99266 6.171267,-4.82861 6.171267,-4.82861 m -83.282254,-2.49257 c 6.991605,-7.44028 16.9163134,-5.00756 29.0577192,0.332 5.7484898,2.52808 11.5246518,5.41585 16.8048888,7.49611 5.400514,2.12765 9.953551,3.32625 14.154642,3.51973 8.269924,0.38086 13.599845,-3.42282 17.392594,-6.47799 3.735056,-3.0087 5.87241,-4.86985 5.87241,-4.86985 m -83.282254,-2.49256 c 6.947903,-7.62583 17.0967001,-5.29541 29.473161,0.0263 5.859346,2.51943 11.734923,5.41867 17.069719,7.52112 5.457688,2.15087 10.016334,3.37994 14.185425,3.60718 8.203515,0.44713 13.303377,-3.29348 16.935027,-6.32123 3.572519,-2.97846 5.618922,-4.83334 5.618922,-4.83334 m -83.282254,37.38844 c 27.7795251,0.01 83.282254,0 83.282254,0 m -83.282254,-2.49256 c 7.755315,-0.25577 15.1617369,0.0941 24.57346225,0.5095 9.75243245,0.43039 17.27472275,0.67628 26.87479275,0.55928 8.443629,-0.1029 16.944188,-0.50441 22.489081,-0.73529 5.795575,-0.24132 9.344918,-0.33349 9.344918,-0.33349 m -83.282254,-2.49256 c 7.900304,-0.65973 15.2690015,0.0305 24.54179358,0.9175 9.65994402,0.92401 17.00346042,1.50124 26.64911842,1.30693 8.53423,-0.17193 16.962575,-0.98585 22.655551,-1.48707 5.863344,-0.51623 9.435791,-0.73736 9.435791,-0.73736 m -83.282254,-2.49256 c 7.970573,-1.17733 15.370816,-0.16222 24.62170246,1.23284 9.67876154,1.45958 16.93880954,2.43083 26.61498954,2.19413 8.592244,-0.21018 16.902905,-1.43915 22.644147,-2.23636 5.85439,-0.81292 9.401415,-1.19061 9.401415,-1.19061 m -83.282254,-2.49256 c 7.978953,-1.77897 15.4724629,-0.46036 24.7989184,1.46121 9.7930843,2.0177 17.0449336,3.42538 26.7394376,3.17669 8.625794,-0.22128 16.771113,-1.8588 22.481165,-2.96508 5.781537,-1.12014 9.262733,-1.67282 9.262733,-1.67282 m -83.282254,-2.49256 c 7.937979,-2.43721 15.5778193,-0.84153 25.05955451,1.60848 9.98697949,2.58056 17.28915549,4.44855 26.99160349,4.21384 8.639941,-0.209 16.575737,-2.23961 22.19163,-3.657 5.656797,-1.42772 9.039466,-2.16532 9.039466,-2.16532 m -83.282254,-2.49256 c 7.859539,-3.12676 15.6897099,-1.28477 25.39010742,1.68069 10.24506558,3.13196 17.64127858,5.46733 27.34273358,5.26836 8.637998,-0.17717 16.326614,-2.5771 21.799299,-4.2978 5.474443,-1.72125 8.750114,-2.65125 8.750114,-2.65125 m -83.282254,-2.49257 c 7.754656,-3.82446 15.8101242,-1.77051 25.777459,1.68401 10.552696,3.65739 18.073399,6.452 27.766185,6.30651 8.622355,-0.12943 16.034042,-2.86741 21.326661,-4.87497 5.276825,-2.00156 8.411949,-3.11555 8.411949,-3.11555"
       inkscape:path-effect="#path-effect1181"
       inkscape:original-d="m -24.602695,180.81708 h 83.282254 m -83.282254,-2.49257 h 83.282254 m -83.282254,-2.49256 h 83.282254 m -83.282254,-2.49256 h 83.282254 m -83.282254,-2.49257 h 83.282254 m -83.282254,-2.49256 h 83.282254 m -83.282254,-2.49257 h 83.282254 m -83.282254,-2.49256 h 83.282254 m -83.282254,37.38846 h 83.282254 m -83.282254,-2.49256 h 83.282254 m -83.282254,-2.49257 h 83.282254 m -83.282254,-2.49256 h 83.282254 m -83.282254,-2.49256 h 83.282254 m -83.282254,-2.49257 h 83.282254 m -83.282254,-2.49256 h 83.282254 m -83.282254,-2.49257 h 83.282254 m -83.282254,37.38847 h 83.282254 m -83.282254,-2.49257 h 83.282254 m -83.282254,-2.49256 h 83.282254 m -83.282254,-2.49257 h 83.282254 m -83.282254,-2.49256 h 83.282254 m -83.282254,-2.49256 h 83.282254 m -83.282254,-2.49257 h 83.282254 m -83.282254,-2.49256 h 83.282254 m -83.282254,37.38844 h 83.282254 m -83.282254,-2.49256 h 83.282254 m -83.282254,-2.49256 h 83.282254 m -83.282254,-2.49256 h 83.282254 m -83.282254,-2.49256 h 83.282254 m -83.282254,-2.49256 h 83.282254 m -83.282254,-2.49256 h 83.282254 m -83.282254,-2.49257 h 83.282254"
       inkscape:connector-curvature="0"
       transform="matrix(0.83419662,0,0,0.83419662,95.429197,71.857801)" />
  </g>
  <g
     inkscape:groupmode="layer"
     id="layer2"
     inkscape:label="Layer 2"
     style="filter:url(#filter1167);opacity:0.786">
    <path
       inkscape:connector-curvature="0"
       inkscape:original-d="m -24.602695,180.81708 h 83.282254 m -83.282254,-2.49257 h 83.282254 m -83.282254,-2.49256 h 83.282254 m -83.282254,-2.49256 h 83.282254 m -83.282254,-2.49257 h 83.282254 m -83.282254,-2.49256 h 83.282254 m -83.282254,-2.49257 h 83.282254 m -83.282254,-2.49256 h 83.282254 m -83.282254,37.38846 h 83.282254 m -83.282254,-2.49256 h 83.282254 m -83.282254,-2.49257 h 83.282254 m -83.282254,-2.49256 h 83.282254 m -83.282254,-2.49256 h 83.282254 m -83.282254,-2.49257 h 83.282254 m -83.282254,-2.49256 h 83.282254 m -83.282254,-2.49257 h 83.282254 m -83.282254,37.38847 h 83.282254 m -83.282254,-2.49257 h 83.282254 m -83.282254,-2.49256 h 83.282254 m -83.282254,-2.49257 h 83.282254 m -83.282254,-2.49256 h 83.282254 m -83.282254,-2.49256 h 83.282254 m -83.282254,-2.49257 h 83.282254 m -83.282254,-2.49256 h 83.282254 m -83.282254,37.38844 h 83.282254 m -83.282254,-2.49256 h 83.282254 m -83.282254,-2.49256 h 83.282254 m -83.282254,-2.49256 h 83.282254 m -83.282254,-2.49256 h 83.282254 m -83.282254,-2.49256 h 83.282254 m -83.282254,-2.49256 h 83.282254 m -83.282254,-2.49257 h 83.282254"
       d="m -24.698868,269.59131 c 5.858951,-3.7393 13.991088,-3.3889 23.5420795,-1.57891 10.8961904,2.0649 15.9716705,3.89809 23.7147225,4.45195 6.161739,0.44075 10.033846,-0.61461 12.98468,-1.49461 2.87923,-0.85864 4.685304,-1.37843 4.685304,-1.37843 m -64.926786,-1.94321 c 5.933829,-3.19481 13.901072,-3.00502 23.2329505,-1.57543 8.85223,1.35609 17.2491305,3.24574 23.3802245,3.64364 6.195467,0.40208 10.246683,-0.39143 13.360744,-1.04953 3.03588,-0.6416 4.952867,-1.01868 4.952867,-1.01868 m -64.926786,-1.94319 c 5.992847,-2.62639 13.753936,-2.5742 22.8305815,-1.51025 8.6167916,1.01006 16.8411445,2.49113 23.0195425,2.84115 6.249026,0.35402 10.515919,-0.19603 13.81954,-0.64692 3.217795,-0.4392 5.257122,-0.68398 5.257122,-0.68398 m -64.926786,-1.9432 c 6.027571,-2.04866 13.541762,-2.10344 22.3307245,-1.376 8.3521634,0.69129 16.3989885,1.77921 22.6447565,2.07268 6.325012,0.29721 10.841774,-0.0382 14.358834,-0.30617 3.422313,-0.26074 5.592471,-0.39051 5.592471,-0.39051 m -64.926786,-1.94321 c 6.028552,-1.47799 13.256313,-1.60083 21.7294275,-1.16525 8.0628423,0.41448 15.9341535,1.14019 22.2695925,1.36927 6.426504,0.23238 11.223636,0.0716 14.975404,-0.0482 3.627461,-0.11578 5.952362,-0.15582 5.952362,-0.15582 m -64.926786,-1.94316 c 5.985243,-0.93247 12.889133,-1.07551 21.0230465,-0.87043 7.391533,0.18636 14.5178845,0.57825 21.9094175,0.76461 6.558192,0.1605 11.658923,0.12222 15.665035,0.10475 3.873391,-0.0169 6.329287,7.7e-4 6.329287,7.7e-4 m -64.926786,-1.94321 c 5.886217,-0.43192 12.431314,-0.53756 20.2082245,-0.48382 7.431772,0.0514 14.9902085,0.2142 21.5812415,0.29514 6.737005,0.0828 12.132464,0.10201 16.422533,0.12873 4.130977,0.0257 6.714787,0.06 6.714787,0.06 m -64.926786,-1.9432 c 21.6593145,0.007 64.926786,0 64.926786,0 m -64.926786,29.14802 c 5.402405,-6.00836 13.467017,-4.29748 23.2668155,-0.22252 4.639222,1.92909 9.281719,4.16568 13.4726785,5.79811 4.288674,1.67049 7.841579,2.63804 11.067618,2.83845 6.344468,0.39414 10.167975,-2.43141 12.896532,-4.73424 2.681388,-2.26303 4.223142,-3.6798 4.223142,-3.6798 m -64.926786,-1.9432 c 5.408391,-5.9887 13.599897,-4.40717 23.5148195,-0.4641 4.693574,1.86659 9.3808238,4.04751 13.5923635,5.64958 4.311023,1.6399 7.857468,2.60215 11.06074,2.82217 6.295752,0.43243 9.997321,-2.26328 12.648895,-4.47373 2.603206,-2.17014 4.109968,-3.53392 4.109968,-3.53392 m -64.926786,-1.9432 c 5.433956,-5.8862 13.72337,-4.45426 23.71432854,-0.69807 10.87717626,4.08936 17.32491246,7.63902 24.70220746,8.18489 6.25088,0.46252 9.863774,-2.06725 12.466286,-4.15278 2.552655,-2.04557 4.043964,-3.33404 4.043964,-3.33404 m -64.926786,-1.9432 c 5.477671,-5.70252 13.833105,-4.43672 23.85870154,-0.91809 10.96295046,3.84759 17.29971546,7.20726 24.68655046,7.78242 6.211506,0.48365 9.771321,-1.84806 12.354377,-3.77917 2.531278,-1.89238 4.027157,-3.08516 4.027157,-3.08516 m -64.926786,-1.9432 c 5.537257,-5.44101 13.924303,-4.35367 23.94159954,-1.11772 11.01093446,3.55693 17.19692146,6.67966 24.60671346,7.2735 6.179387,0.49523 9.723506,-1.61104 12.317851,-3.36209 2.540094,-1.71442 4.060622,-2.79369 4.060622,-2.79369 m -64.926786,-1.9432 c 5.609589,-5.10658 13.991684,-4.20541 23.95697854,-1.29039 11.02265246,3.22432 17.01489246,6.06874 24.46492246,6.67002 6.156364,0.49687 9.723427,-1.36223 12.360406,-2.91224 2.579591,-1.51628 4.144479,-2.46739 4.144479,-2.46739 m -64.926786,-1.9432 c 5.690685,-4.70576 14.029496,-3.99332 23.89909754,-1.42937 11.00179146,2.85806 16.75218646,5.38946 24.26504746,5.98657 6.144376,0.48835 9.773733,-1.10825 12.484748,-2.44174 2.649739,-1.30334 4.277893,-2.11546 4.277893,-2.11546 m -64.926786,-1.94321 c 5.775708,-4.24674 14.031523,-3.71992 23.76251254,-1.52787 10.95535746,2.46788 16.40640046,4.65931 24.01259546,5.24053 6.145457,0.4696 9.876624,-0.8564 12.692595,-1.96418 2.749981,-1.0818 4.459083,-1.74848 4.459083,-1.74848 m -64.926786,29.14803 c 5.950979,-3.51543 12.427065,-1.77792 20.4324165,1.26669 8.49456,3.23065 14.4692085,5.75037 22.0138685,5.68953 6.700589,-0.054 12.246232,-2.42258 16.211722,-4.19259 3.943057,-1.76001 6.268779,-2.76363 6.268779,-2.76363 m -64.926786,-1.94321 c 5.850688,-4.02456 12.536659,-2.18139 20.7934645,1.17685 8.7800443,3.57105 14.8723395,6.40547 22.4010035,6.40535 6.671277,-8e-5 11.974432,-2.56881 15.766689,-4.52 3.76241,-1.93583 5.965629,-3.0622 5.965629,-3.0622 m -64.926786,-1.94319 c 5.750855,-4.49589 12.654309,-2.57869 21.1699005,1.04852 9.0740044,3.86507 15.2826285,6.97966 22.7920535,7.04586 6.635236,0.0585 11.692376,-2.67295 15.30572,-4.77736 3.578139,-2.0839 5.659112,-3.31702 5.659112,-3.31702 m -64.926786,-1.94321 c 5.656844,-4.91805 12.779496,-2.95888 21.5526945,0.88705 9.3678971,4.10663 15.6848985,7.46001 23.1728205,7.59567 6.593621,0.11947 11.407385,-2.73452 14.842394,-4.96077 3.39599,-2.20096 5.358877,-3.52195 5.358877,-3.52195 m -64.926786,-1.94321 c 5.573172,-5.2813 12.911225,-3.31211 21.9331105,0.69789 4.566685,2.02976 8.2938576,3.92643 12.5861536,5.55287 4.0937559,1.55121 7.6195839,2.39746 10.9445879,2.48925 6.547603,0.18075 11.126421,-2.75366 14.389305,-5.06781 3.221181,-2.28457 5.073629,-3.6722 5.073629,-3.6722 m -64.926786,-1.94319 c 5.503502,-5.57757 13.048022,-3.62966 22.3027155,0.48657 4.382098,1.94903 8.7940476,4.15887 12.8585135,5.73979 4.156074,1.61654 7.696108,2.51336 10.996389,2.63548 6.498386,0.24048 10.856049,-2.73114 13.958053,-5.09746 3.058412,-2.33307 4.811115,-3.76438 4.811115,-3.76438 m -64.926786,-1.94321 c 5.450651,-5.80043 13.187946,-3.90389 22.6533775,0.25884 4.481518,1.97088 8.98461,4.22218 13.1010795,5.84395 4.210237,1.65872 7.759781,2.59314 11.034949,2.74398 6.447227,0.29692 10.60243,-2.66842 13.559254,-5.05023 2.911847,-2.34559 4.578126,-3.79654 4.578126,-3.79654 m -64.926786,-1.9432 c 5.41658,-5.94509 13.328575,-4.1283 22.9772555,0.0205 4.567941,1.96415 9.1485374,4.22439 13.3075405,5.86346 4.25481,1.67682 7.808727,2.635 11.058948,2.81215 6.395454,0.34858 10.371303,-2.56759 13.202535,-4.92802 2.785134,-2.32201 4.380507,-3.76807 4.380507,-3.76807 m -64.926786,29.148 c 21.6568985,0.007 64.926786,0 64.926786,0 m -64.926786,-1.9432 c 6.046038,-0.1994 11.82008,0.0733 19.1574535,0.39721 7.602989,0.33553 13.4673617,0.52723 20.9515695,0.43601 6.582647,-0.0802 13.209677,-0.39324 17.532473,-0.57323 4.518226,-0.18813 7.28529,-0.25999 7.28529,-0.25999 m -64.926786,-1.9432 c 6.159071,-0.51432 11.903703,0.0237 19.1327645,0.71529 7.530886,0.72035 13.2558858,1.17036 20.7756345,1.01888 6.653279,-0.13404 13.224012,-0.76857 17.662252,-1.15932 4.571058,-0.40245 7.356135,-0.57485 7.356135,-0.57485 m -64.926786,-1.94319 c 6.213853,-0.91785 11.983078,-0.12647 19.1950615,0.96112 7.545556,1.13788 13.205484,1.89507 20.7490275,1.71054 6.698507,-0.16385 13.177493,-1.12197 17.653361,-1.74347 4.564079,-0.63374 7.329336,-0.92819 7.329336,-0.92819 m -64.926786,-1.9432 c 6.220386,-1.38689 12.062321,-0.3589 19.3332185,1.13916 7.634682,1.57299 13.2882187,2.67042 20.8460475,2.47654 6.724663,-0.17251 13.074748,-1.44911 17.526301,-2.31157 4.507282,-0.87327 7.221219,-1.30413 7.221219,-1.30413 m -64.926786,-1.9432 c 6.188443,-1.90004 12.144457,-0.65606 19.5364105,1.25396 7.785842,2.01181 13.4786136,3.46809 21.0426355,3.28511 6.735692,-0.16293 12.922434,-1.74599 17.300579,-2.85098 4.410036,-1.11305 7.047161,-1.68809 7.047161,-1.68809 m -64.926786,-1.9432 c 6.127291,-2.43762 12.231687,-1.00161 19.7941095,1.31026 7.987046,2.44168 13.7531283,4.26234 21.3163755,4.10722 6.734178,-0.13812 12.728218,-2.00911 16.994719,-3.35056 4.267872,-1.34189 6.821582,-2.06692 6.821582,-2.06692 m -64.926786,-1.9432 c 6.045524,-2.98155 12.325562,-1.38029 20.0960885,1.31285 8.226874,2.8513 14.0900091,5.02997 21.6464985,4.91655 6.721982,-0.10086 12.500128,-2.23543 16.626251,-3.80053 4.113809,-1.56041 6.557948,-2.42887 6.557948,-2.42887"
       style="fill:none;stroke:url(#linearGradient1177);stroke-width:1.219;stroke-linecap:round;stroke-linejoin:miter;stroke-miterlimit:4;stroke-dasharray:none;stroke-opacity:0.97777776;opacity:0.553"
       id="path1183"
       clip-path="url(#clipPath1091-3)"
       transform="translate(19.19642,-260.10639)" />
  </g>
</svg>
